<svg width="200" height="80" viewBox="0 0 200 80" fill="none" xmlns="http://www.w3.org/2000/svg">
<g clip-path="url(#clip0_34_885)">
<g clip-path="url(#clip1_34_885)">
<path d="M2.928 16.576H6.832V18H1.104V6.704H2.928V16.576ZM10.0843 8.176V11.6H14.2443V13.008H10.0843V16.512H14.7243V18H8.26025V6.704H14.7243V8.176H10.0843ZM23.7586 6.704V8.176H20.6066V18H18.7666V8.176H15.6306V6.704H23.7586ZM26.3036 5.136C26.453 5.63733 26.5276 6.17067 26.5276 6.736C26.5276 7.376 26.373 7.86667 26.0636 8.208C25.765 8.54933 25.3223 8.72 24.7356 8.72V7.952C25.0023 7.952 25.1996 7.87733 25.3276 7.728C25.4556 7.568 25.5196 7.33333 25.5196 7.024V6.688H24.6556V5.136H26.3036ZM35.6999 14.992C35.6999 15.5467 35.5665 16.064 35.2999 16.544C35.0332 17.0133 34.6279 17.392 34.0839 17.68C33.5399 17.968 32.8732 18.112 32.0839 18.112C31.3159 18.112 30.6279 17.9787 30.0199 17.712C29.4119 17.4347 28.9265 17.0507 28.5639 16.56C28.2012 16.0693 27.9932 15.504 27.9399 14.864H29.8919C29.9452 15.3547 30.1532 15.776 30.5159 16.128C30.8892 16.48 31.3852 16.656 32.0039 16.656C32.5585 16.656 32.9852 16.5067 33.2839 16.208C33.5932 15.9093 33.7479 15.5253 33.7479 15.056C33.7479 14.6507 33.6359 14.32 33.4119 14.064C33.1879 13.7973 32.9105 13.5893 32.5799 13.44C32.2492 13.2907 31.7959 13.12 31.2199 12.928C30.5159 12.704 29.9399 12.48 29.4919 12.256C29.0545 12.032 28.6812 11.7067 28.3719 11.28C28.0625 10.8533 27.9079 10.2933 27.9079 9.6C27.9079 8.992 28.0572 8.45867 28.3559 8C28.6545 7.54133 29.0812 7.18933 29.6359 6.944C30.1905 6.688 30.8305 6.56 31.5559 6.56C32.7079 6.56 33.6199 6.83733 34.2919 7.392C34.9745 7.94667 35.3639 8.672 35.4599 9.568H33.4919C33.4172 9.14133 33.2145 8.77867 32.8839 8.48C32.5639 8.17067 32.1212 8.016 31.5559 8.016C31.0439 8.016 30.6332 8.14933 30.3239 8.416C30.0145 8.672 29.8599 9.04533 29.8599 9.536C29.8599 9.92 29.9665 10.24 30.1799 10.496C30.3932 10.7413 30.6599 10.9387 30.9799 11.088C31.3105 11.2267 31.7585 11.392 32.3239 11.584C33.0385 11.808 33.6199 12.0373 34.0679 12.272C34.5265 12.496 34.9105 12.8267 35.2199 13.264C35.5399 13.7013 35.6999 14.2773 35.6999 14.992ZM46.3159 6.592C47.7025 6.592 48.8545 6.944 49.7719 7.648C50.6892 8.352 51.3079 9.30667 51.6279 10.512H49.6919C49.4252 9.82933 48.9985 9.29067 48.4119 8.896C47.8359 8.49067 47.1265 8.288 46.2839 8.288C45.6119 8.288 45.0092 8.45333 44.4759 8.784C43.9532 9.11467 43.5372 9.58933 43.2279 10.208C42.9292 10.816 42.7799 11.5307 42.7799 12.352C42.7799 13.1627 42.9292 13.8773 43.2279 14.496C43.5372 15.104 43.9532 15.5733 44.4759 15.904C45.0092 16.2347 45.6119 16.4 46.2839 16.4C47.1265 16.4 47.8359 16.2027 48.4119 15.808C48.9985 15.4027 49.4252 14.864 49.6919 14.192H51.6279C51.3079 15.3973 50.6892 16.352 49.7719 17.056C48.8545 17.7493 47.7025 18.096 46.3159 18.096C45.2492 18.096 44.3052 17.856 43.4839 17.376C42.6625 16.8853 42.0279 16.208 41.5799 15.344C41.1319 14.4693 40.9079 13.472 40.9079 12.352C40.9079 11.232 41.1319 10.24 41.5799 9.376C42.0279 8.50133 42.6625 7.81867 43.4839 7.328C44.3052 6.83733 45.2492 6.592 46.3159 6.592ZM58.6798 6.56C59.7251 6.56 60.6691 6.80533 61.5118 7.296C62.3651 7.78667 63.0318 8.47467 63.5118 9.36C64.0024 10.2347 64.2478 11.2267 64.2478 12.336C64.2478 13.4453 64.0024 14.4427 63.5118 15.328C63.0318 16.2027 62.3651 16.8907 61.5118 17.392C60.6691 17.8827 59.7251 18.128 58.6798 18.128C57.6238 18.128 56.6691 17.8827 55.8158 17.392C54.9731 16.8907 54.3064 16.2027 53.8158 15.328C53.3251 14.4427 53.0798 13.4453 53.0798 12.336C53.0798 11.2267 53.3251 10.2347 53.8158 9.36C54.3064 8.47467 54.9731 7.78667 55.8158 7.296C56.6691 6.80533 57.6238 6.56 58.6798 6.56ZM58.6798 8.256C57.9544 8.256 57.3091 8.42133 56.7438 8.752C56.1784 9.08267 55.7358 9.55733 55.4158 10.176C55.1064 10.7947 54.9518 11.5147 54.9518 12.336C54.9518 13.1573 55.1064 13.8773 55.4158 14.496C55.7358 15.1147 56.1784 15.5893 56.7438 15.92C57.3091 16.2507 57.9544 16.416 58.6798 16.416C59.3944 16.416 60.0291 16.2507 60.5838 15.92C61.1491 15.5893 61.5864 15.1147 61.8958 14.496C62.2158 13.8773 62.3758 13.1573 62.3758 12.336C62.3758 11.5147 62.2158 10.7947 61.8958 10.176C61.5864 9.55733 61.1491 9.08267 60.5838 8.752C60.0291 8.42133 59.3944 8.256 58.6798 8.256ZM75.2244 18H73.4004L67.9124 9.664V18H66.0884V6.72H67.9124L73.4004 15.088V6.72H75.2244V18ZM86.5681 18H84.7441L79.2561 9.664V18H77.4321V6.72H79.2561L84.7441 15.088V6.72H86.5681V18ZM90.5999 8.176V11.6H94.7599V13.008H90.5999V16.512H95.2399V18H88.7759V6.704H95.2399V8.176H90.5999ZM102.05 6.592C103.437 6.592 104.589 6.944 105.506 7.648C106.424 8.352 107.042 9.30667 107.362 10.512H105.426C105.16 9.82933 104.733 9.29067 104.146 8.896C103.57 8.49067 102.861 8.288 102.018 8.288C101.346 8.288 100.744 8.45333 100.21 8.784C99.6876 9.11467 99.2716 9.58933 98.9623 10.208C98.6636 10.816 98.5143 11.5307 98.5143 12.352C98.5143 13.1627 98.6636 13.8773 98.9623 14.496C99.2716 15.104 99.6876 15.5733 100.21 15.904C100.744 16.2347 101.346 16.4 102.018 16.4C102.861 16.4 103.57 16.2027 104.146 15.808C104.733 15.4027 105.16 14.864 105.426 14.192H107.362C107.042 15.3973 106.424 16.352 105.506 17.056C104.589 17.7493 103.437 18.096 102.05 18.096C100.984 18.096 100.04 17.856 99.2183 17.376C98.3969 16.8853 97.7623 16.208 97.3143 15.344C96.8663 14.4693 96.6423 13.472 96.6423 12.352C96.6423 11.232 96.8663 10.24 97.3143 9.376C97.7623 8.50133 98.3969 7.81867 99.2183 7.328C100.04 6.83733 100.984 6.592 102.05 6.592ZM116.446 6.704V8.176H113.294V18H111.454V8.176H108.318V6.704H116.446Z" fill="#7F8CFF"/>
</g>
<g clip-path="url(#clip2_34_885)">
<g clip-path="url(#clip3_34_885)">
<g clip-path="url(#clip4_34_885)">
<path d="M28.9994 57.4611C28.9994 56.3212 28.6334 55.2504 27.9347 54.3178C28.2008 53.4197 28.2674 52.2798 28.2008 50.9672C28.1676 50.4145 27.735 50 27.2027 50C26.9032 50 24.3746 50.0345 22.9106 51.3817C21.6463 51.1399 20.3154 51.1399 19.0178 51.3817C17.5872 50.0345 15.0585 50 14.7258 50C14.1934 50 13.7609 50.4145 13.7276 50.9672C13.6278 52.2798 13.7276 53.4197 13.9938 54.3178C13.2951 55.285 12.9291 56.3558 12.9291 57.4611C12.9291 59.8791 14.7258 62.0553 17.4541 63.0915C17.3543 63.2988 17.2877 63.5406 17.2212 63.7824C14.3265 63.4715 12.9624 60.7427 12.8958 60.639C12.6629 60.1209 12.0641 59.9136 11.565 60.19C11.0659 60.4318 10.8663 61.0535 11.1324 61.5717C11.199 61.7444 13.0289 65.4404 17.0548 65.8549V68.9637C17.0548 69.5509 17.4873 70 18.053 70H23.8755C24.4411 70 24.8737 69.5509 24.8737 68.9637V64.8532C24.8737 64.2314 24.7406 63.6442 24.5077 63.1261C27.2027 62.0553 28.9994 59.9136 28.9994 57.4611Z" fill="#505F79"/>
</g>
</g>
<g clip-path="url(#clip5_34_885)">
<path d="M63.6444 53.0344C60.1556 53.0344 57.2886 55.862 57.2886 59.3793V69.3103C57.2886 69.6896 57.5995 69.9999 57.9794 69.9999H61.5718C61.9518 69.9999 62.2627 69.6896 62.2627 69.3103V59.6551C62.2627 58.8965 62.8844 58.2758 63.6444 58.2758C64.4043 58.2758 65.0261 58.8965 65.0261 59.6551V69.3103C65.0261 69.6896 65.3369 69.9999 65.7169 69.9999H69.3093C69.6893 69.9999 70.0001 69.6896 70.0001 69.3103V59.3793C70.0001 55.8965 67.1677 53.0344 63.6444 53.0344Z" fill="#505F79"/>
<path d="M54.2832 56.2759H50.6908C50.3109 56.2759 50 56.5862 50 56.9655V69.3104C50 69.6897 50.3109 70 50.6908 70H54.2832C54.6632 70 54.9741 69.6897 54.9741 69.3104V56.9655C54.9741 56.5862 54.6632 56.2759 54.2832 56.2759Z" fill="#505F79"/>
<path d="M52.487 50C51.1054 50 50 51.1034 50 52.4828C50 53.8621 51.1054 54.9655 52.487 54.9655C53.8687 54.9655 54.9741 53.8621 54.9741 52.4828C54.9741 51.1034 53.8687 50 52.487 50Z" fill="#505F79"/>
</g>
<g clip-path="url(#clip6_34_885)">
<path d="M99.464 70C104.161 70 107.083 66.5392 107.083 62.0742C107.083 60.3908 106.809 58.8708 104.898 58.4142C105.363 57.1408 106.705 53.4575 106.705 52.2775C106.705 51.2383 106.08 50.3675 104.966 50.3675C103.19 50.3675 101.598 55.5117 101.1 56.7383C100.714 55.625 98.9073 50 97.3148 50C96.0773 50 95.4965 50.8942 95.4965 52.0192C95.4965 53.3983 96.8573 56.9725 97.3507 58.3475C97.1007 58.2575 96.8298 58.1792 96.554 58.1792C95.6223 58.1792 94.6315 59.3158 94.6315 60.2342C94.6315 60.5817 94.8265 61.07 94.9498 61.3942C93.4815 61.785 92.9165 62.7458 92.9165 64.195C92.9123 67.015 95.6357 70 99.464 70ZM103.489 54.2192C103.649 53.7383 104.329 51.7075 104.966 51.7075C105.308 51.7075 105.4 52.055 105.4 52.3325C105.4 53.0783 103.864 57.2 103.525 58.1133L102.172 57.8792L103.489 54.2192ZM96.7465 51.8875V51.8867C96.7465 51.4217 97.324 50.1017 98.589 53.7267L99.9665 57.645C99.3457 57.5942 98.864 57.5275 98.5582 57.7C98.124 56.575 96.7465 53.0242 96.7465 51.8875ZM96.6548 59.5308L96.6557 59.5317C97.8215 59.5317 99.3265 63.2267 99.3265 63.7267C99.3265 63.9258 99.1315 64.1717 98.9048 64.1717C98.0723 64.1717 95.8432 61.1675 95.8432 60.355C95.8465 60.0542 96.3482 59.5308 96.6548 59.5308ZM95.3148 62.5892C95.7682 62.5892 97.4757 64.945 97.4757 65.445C97.4757 65.6367 97.169 65.7692 97.0107 65.7692C96.3698 65.7692 96.119 65.1633 94.9773 63.7617C93.7948 64.9217 95.7932 67.1558 97.2982 67.1558C98.3365 67.1558 99.0132 66.2108 98.8107 65.515C98.9582 65.515 99.1407 65.5267 99.2765 65.4917C99.3207 66.55 99.639 67.8117 100.937 67.9017C100.937 67.8667 101.017 67.6242 101.017 67.6125C101.017 66.9325 100.595 66.3392 100.595 65.6475C100.595 64.5417 101.458 63.4717 102.334 62.8467C102.652 62.6125 103.039 62.4675 103.412 62.335C103.799 62.1908 104.209 62.0225 104.502 61.7333C104.458 61.2958 104.276 60.9092 103.83 60.9092C102.727 60.9092 99.0298 61.0658 99.0298 59.3583C99.0298 59.0967 99.034 58.8467 99.7232 58.8467C101.009 58.8467 104.273 59.1592 105.228 59.9833C105.948 60.6125 106.196 64.405 103.994 66.8075L103.992 66.8083C102.833 68.0583 101.352 68.7067 99.6248 68.7067C97.2607 68.7067 95.3932 67.4333 94.494 65.2575C93.8132 63.5625 94.6457 62.5892 95.3148 62.5892ZM100.066 61.8858C100.453 62.0075 100.851 62.0433 101.249 62.1208C100.954 62.3317 100.692 62.59 100.441 62.8667C100.329 62.535 100.193 62.2108 100.066 61.8858Z" fill="#505F79"/>
</g>
<g clip-path="url(#clip7_34_885)">
<g clip-path="url(#clip8_34_885)">
<path d="M149.766 50.3698C149.433 49.9711 148.866 49.8714 148.433 50.1704L146.5 51.4993C145.6 50.5359 144.333 50.0043 142.966 50.0043C140.266 50.0043 138.033 52.197 138.033 54.9212C138.033 55.3199 138.066 55.6854 138.166 56.0508C135.833 55.5525 134.433 53.8581 133.9 50.8017C133.833 50.403 133.533 50.104 133.133 50.0043C132.766 49.9046 132.366 50.0708 132.133 50.3698C132.066 50.4362 126.566 58.0774 134.533 64.5558C133.766 66.1837 131.466 67.579 130.566 68.0441C130.133 68.2435 129.933 68.7086 130.033 69.1737C130.133 69.6388 130.533 69.9378 131 69.9378H132.733C142.866 69.9378 147.466 64.9212 147.566 53.692L149.666 51.6987C150.066 51.3664 150.1 50.7684 149.766 50.3698Z" fill="#505F79"/>
</g>
</g>
<path d="M188.404 53.8804L190 52.3377V52H184.472L180.532 61.9099L176.049 52H170.252V52.3377L172.117 54.6055C172.298 54.7731 172.393 55.0181 172.369 55.2648V64.1768C172.427 64.4977 172.323 64.8278 172.1 65.0611L170 67.6328V67.9663H175.954V67.6286L173.854 65.0611C173.627 64.8269 173.519 64.5027 173.565 64.1768V56.4682L178.792 67.9705H179.399L183.893 56.4682V65.6312C183.893 65.8728 183.893 65.9225 183.737 66.0808L182.12 67.6615V68H189.963V67.6623L188.405 66.1204C188.268 66.016 188.198 65.8408 188.227 65.6707V54.3301C188.198 54.1592 188.267 53.984 188.404 53.8804Z" fill="#505F79"/>
</g>
</g>
<defs>
<clipPath id="clip0_34_885">
<rect width="200" height="80" fill="white"/>
</clipPath>
<clipPath id="clip1_34_885">
<rect width="117" height="24" fill="white"/>
</clipPath>
<clipPath id="clip2_34_885">
<rect width="200" height="40" fill="white" transform="translate(0 40)"/>
</clipPath>
<clipPath id="clip3_34_885">
<rect width="18" height="20" fill="white" transform="translate(11 50)"/>
</clipPath>
<clipPath id="clip4_34_885">
<rect width="18" height="20" fill="white" transform="translate(11 50)"/>
</clipPath>
<clipPath id="clip5_34_885">
<rect width="20" height="20" fill="white" transform="translate(50 50)"/>
</clipPath>
<clipPath id="clip6_34_885">
<rect width="20" height="20" fill="white" transform="translate(90 50)"/>
</clipPath>
<clipPath id="clip7_34_885">
<rect width="20" height="20" fill="white" transform="translate(130 50)"/>
</clipPath>
<clipPath id="clip8_34_885">
<rect width="20" height="19.9667" fill="white" transform="translate(130 49.9714)"/>
</clipPath>
</defs>
</svg>
